<svg xmlns="http://www.w3.org/2000/svg" viewBox="0 0 48 48"><path d="M8.9 26v-1.1h9.115l2.909 2.674-2.756 6.752a2.715 2.715 0 0 0 .943 3.381 2.434 2.434 0 0 0 1.013.241 2.468 2.468 0 0 0 2.11-1.523c.113-.196 4.048-7.992 4.496-8.88l.133-.265-2.48-2.38H35.48a1.894 1.894 0 0 0 2.045-2.755 1.89 1.89 0 0 0-1.142-.922l-4.824-1.251-2.004-5.494a2.905 2.905 0 0 0-.551-1.193.949.949 0 0 0-.154-.191l-1.328-1.14a2.91 2.91 0 0 0-3.962-.129l-8.673 7.285a1.901 1.901 0 0 0-.065 2.855l2.322 2.135H8.9V23h-.8v1.1H6.138v.8H8.1V26zm16.983 1.448c-1.29 2.553-4.23 8.374-4.344 8.58-.768 1.346-1.52 1.216-2.093.952a1.935 1.935 0 0 1-.54-2.345l2.969-7.274-2.677-2.46h4.03zM23.548 24.1l-1.566-1.502 5.025-4.028 1.641 4.51 3.802 1.02zm-8.185-2.724a1.1 1.1 0 0 1 .037-1.652l8.68-7.291a2.16 2.16 0 0 1 1.42-.518 1.963 1.963 0 0 1 1.464.608l1.371 1.2.057.083a2.16 2.16 0 0 1 .395.89l2.164 5.944 5.217 1.352a1.1 1.1 0 1 1-.642 2.105l-6.268-1.681-1.882-5.168-6.605 5.295 1.622 1.557h-4.067zm23.408 20.492c-.899.9-2.078 2.08-3.747 2.08a3.866 3.866 0 0 1-.999-.135L8.368 34.878l.264-.756 25.629 8.926c1.74.469 2.91-.71 3.944-1.745zM31 11.9A3.9 3.9 0 1 0 27.1 8a3.905 3.905 0 0 0 3.9 3.9zm0-7A3.1 3.1 0 1 1 27.9 8 3.103 3.103 0 0 1 31 4.9z"/></svg>
